<svg width="24" height="24" viewBox="0 0 24 24" fill="none" xmlns="http://www.w3.org/2000/svg">
<path d="M10.275 4.18125L10.0125 4.74375C9.84375 5.1 9.4875 5.325 9.075 5.325H8.45625C8.8125 5.83125 9.39375 6.15 10.05 6.15C11.1188 6.15 12 5.2875 12 4.21875V4.125H10.3688C10.3313 4.125 10.275 4.14375 10.275 4.18125Z" fill="#FFFEFE"/>
<path d="M9.075 4.8374C9.28125 4.8374 9.46875 4.70615 9.5625 4.5374L9.825 3.9749C9.91875 3.76865 10.125 3.61865 10.3687 3.61865H12.375C12.1125 2.5874 11.175 1.8374 10.0688 1.8374C8.75625 1.8374 7.6875 2.90615 7.6875 4.21865C7.6875 4.4249 7.70625 4.6499 7.7625 4.8374H9.075Z" fill="#FFFEFE"/>
<path d="M15.675 15.2999C17.4562 15.2437 22.125 14.8124 23.4188 13.5749C22.8375 11.7937 20.55 11.6812 18.4687 12.5812C18.1125 12.7312 17.625 12.8624 17.0812 12.9749L16.65 11.3249C16.9875 11.1562 17.2125 10.7812 17.1937 10.3874C17.175 9.82492 16.7062 9.39367 16.1437 9.41242L15.825 8.19367C16.1438 7.96867 16.2938 7.57492 16.2 7.16242C16.0687 6.61867 15.525 6.28117 15 6.39367C15 6.39367 10.575 6.43117 9.1875 6.80617C7.8 7.18117 7.33125 9.50617 7.33125 9.50617L6.1125 13.4437H0.35625V15.2999H15.675ZM11.7 8.51242L15.1312 8.36242L15.4125 9.41242C14.475 9.44992 12.825 9.54367 11.3625 9.63742L11.7 8.51242ZM10.7437 11.6624L15.9188 11.4374L16.35 13.0874C14.2312 13.3874 11.4937 13.4437 10.2 13.4437L10.7437 11.6624Z" fill="#FFFEFE"/>
<path d="M20.4188 17.625C20.4188 17.625 23.55 17.5875 23.55 14.5125C23.55 14.3813 23.5313 14.2688 23.5313 14.1562C21.5813 15.5813 16.35 15.8063 15.675 15.825H0.375V18.2438C0.75 18.2438 1.125 18.15 1.4625 18.0187C2.00625 17.7562 2.625 17.625 3.24375 17.625C3.84375 17.625 4.4625 17.7562 5.00625 18.0187C5.3625 18.1687 5.7375 18.2625 6.1125 18.2625C6.4875 18.2625 6.8625 18.1875 7.2 18.0375C7.7625 17.775 8.3625 17.6437 8.98125 17.6437C9.6 17.6437 10.1812 17.775 10.7437 18.0375C11.1 18.1875 11.475 18.2813 11.85 18.2813C12.225 18.2813 12.6 18.2063 12.9375 18.0563C13.4813 17.7938 14.1 17.6625 14.7 17.6625C15.3188 17.6625 15.9 17.7938 16.4625 18.0563C16.8188 18.2063 17.1937 18.3 17.5687 18.3C17.6063 18.3 17.6625 18.3 17.7 18.3L18.15 20.0625C17.9438 20.1 17.7562 20.1188 17.55 20.1188C17.0438 20.1188 16.5563 20.0062 16.125 19.8187C15.6938 19.6125 15.1875 19.5 14.6625 19.5C14.1375 19.5 13.65 19.6125 13.2 19.8187C12.7688 20.0062 12.3 20.1188 11.7938 20.1188C11.2875 20.1188 10.8 20.0062 10.3687 19.8187C9.9375 19.6125 9.43125 19.5 8.90625 19.5C8.38125 19.5 7.89375 19.6125 7.44375 19.8187C7.0125 20.0062 6.54375 20.1188 6.0375 20.1188C5.55 20.1188 5.0625 20.0062 4.63125 19.8187C4.2 19.6125 3.69375 19.5 3.16875 19.5C2.6625 19.5 2.15625 19.6125 1.725 19.8187C1.29375 20.0062 0.80625 20.1188 0.31875 20.1188V22.2375C0.825 22.2375 1.29375 22.125 1.725 21.9375C2.175 21.7313 2.6625 21.6188 3.16875 21.6188C3.69375 21.6188 4.18125 21.7313 4.63125 21.9375C5.0625 22.125 5.55 22.2375 6.0375 22.2375C6.54375 22.2375 7.0125 22.125 7.44375 21.9375C7.89375 21.7313 8.38125 21.6188 8.90625 21.6188C9.43125 21.6188 9.91875 21.7313 10.3687 21.9375C10.8 22.125 11.2875 22.2375 11.7938 22.2375C12.3 22.2375 12.7688 22.125 13.2 21.9375C13.65 21.7313 14.1375 21.6188 14.6625 21.6188C15.1875 21.6188 15.675 21.7313 16.125 21.9375C16.5563 22.125 17.0438 22.2375 17.55 22.2375C18.0375 22.2375 18.525 22.125 18.9563 21.9375C19.3875 21.7313 19.8938 21.6188 20.4188 21.6188C20.9437 21.6188 21.4312 21.7313 21.8812 21.9375C22.3125 22.125 22.8 22.2375 23.3063 22.2375V20.0625C22.8 20.0625 22.3125 19.95 21.8812 19.7625C21.45 19.5563 20.9437 19.4437 20.4188 19.4437C19.8938 19.4437 19.4062 19.5563 18.9563 19.7625C18.9188 19.7813 18.8812 19.7812 18.8625 19.8L18.4313 18.1125C18.5063 18.075 18.5813 18.0563 18.6563 18.0187C19.2 17.775 19.8187 17.625 20.4188 17.625Z" fill="#FFFEFE"/>
</svg>
