<svg width="52" height="51" viewBox="0 0 52 51" fill="none" xmlns="http://www.w3.org/2000/svg">
<g clip-path="url(#clip0_9_276)">
<path d="M48.0584 30.9281C48.128 30.2213 48.1628 29.5013 48.1628 28.7726V28.6155C48.1628 19.6093 42.7945 11.838 35.0986 8.35164C34.6897 3.67839 30.7613 0 26.002 0C21.2427 0 17.3143 3.67402 16.9054 8.34728C9.20958 11.8337 3.83687 19.6093 3.83687 28.6155V28.7726C3.83687 29.4969 3.87167 30.2169 3.94128 30.9238C2.15327 32.1543 0.878615 33.9651 0.313066 36.0901C-0.317738 38.4551 0.00418972 40.9204 1.22229 43.0411C2.91459 45.9777 5.9903 47.6183 9.14867 47.6183C10.4494 47.6183 11.7632 47.3434 12.9988 46.7631C16.6531 49.4292 21.1514 51 26.002 51C30.8527 51 35.3466 49.4292 39.0009 46.7631C40.2364 47.3434 41.5502 47.6183 42.851 47.6183C46.0094 47.6183 49.0851 45.9777 50.7774 43.0411C53.1657 38.8871 51.9346 33.6073 48.0584 30.9281ZM26.002 5.23614C27.1766 5.23614 28.2338 5.75539 28.9516 6.58445C29.5519 7.27387 29.9174 8.17274 29.9174 9.16324C29.9174 10.2061 29.5084 11.1617 28.8385 11.8642C28.125 12.6191 27.1157 13.0903 26.002 13.0903C24.8883 13.0903 23.8747 12.6191 23.1656 11.8642C22.4956 11.1617 22.0867 10.2061 22.0867 9.16324C22.0867 8.12038 22.4521 7.27387 23.0525 6.58445C23.7703 5.75539 24.8231 5.23614 26.002 5.23614ZM5.74668 40.423C5.22029 39.5154 5.08542 38.4594 5.35515 37.4471C5.3856 37.3337 5.4204 37.2246 5.45956 37.1155C5.77278 36.2472 6.37314 35.5272 7.17795 35.0603C8.10023 34.528 9.15302 34.4145 10.1101 34.6632C11.0933 34.9163 11.9808 35.549 12.5246 36.5003C13.0466 37.4079 13.1858 38.4638 12.9161 39.4761C12.9117 39.4936 12.9074 39.511 12.8987 39.5285C12.6246 40.519 11.9808 41.3437 11.0933 41.8586C10.258 42.3429 9.31834 42.4825 8.43956 42.3167C7.34762 42.1204 6.34268 41.4615 5.74668 40.423ZM26.002 45.7639H25.9977C22.687 45.7639 19.5939 44.8039 16.9837 43.1502C17.41 42.4389 17.7363 41.6579 17.9582 40.8332C18.589 38.4682 18.2671 35.9985 17.0446 33.8822C15.3567 30.9456 12.2809 29.3006 9.11822 29.3006H9.06602C9.06602 29.126 9.05731 28.9515 9.05731 28.7726V28.6155C9.05731 22.1358 12.6942 16.4895 18.0278 13.6271C19.5896 16.4284 22.5783 18.3265 26.002 18.3265C29.4258 18.3265 32.4101 16.4284 33.9762 13.6271C39.3055 16.4938 42.9424 22.1358 42.9424 28.6155V28.7726C42.9424 28.9515 42.9424 29.126 42.9337 29.3006C39.7535 29.2831 36.6561 30.9281 34.9551 33.8822C33.7326 35.9985 33.4107 38.4682 34.0415 40.8332C34.259 41.6579 34.5896 42.4389 35.016 43.1502C32.4058 44.8039 29.3127 45.7639 26.002 45.7639ZM46.253 40.423C45.657 41.4615 44.6521 42.1247 43.5558 42.3211C43.3296 42.3647 43.0946 42.3866 42.8597 42.3866C42.1941 42.3866 41.5241 42.2164 40.9064 41.8586C40.0189 41.3437 39.3751 40.519 39.101 39.5285C39.0923 39.511 39.0879 39.4936 39.0836 39.4761C38.8139 38.4638 38.9531 37.4079 39.4751 36.5003C40.0189 35.549 40.902 34.9163 41.8896 34.6632C42.2072 34.5803 42.5378 34.5367 42.8728 34.5367C43.534 34.5367 44.2083 34.7069 44.8217 35.0603C45.6265 35.5272 46.2269 36.2472 46.5401 37.1155C46.5793 37.2246 46.6141 37.3337 46.6445 37.4471C46.9143 38.4594 46.7794 39.5154 46.253 40.423Z" fill="white"/>
</g>
<defs>
<clipPath id="clip0_9_276">
<rect width="52" height="51" fill="white"/>
</clipPath>
</defs>
</svg>
