<svg width="65" height="60" viewBox="0 0 65 60" fill="none" xmlns="http://www.w3.org/2000/svg">
<g clip-path="url(#clip0_9_297)">
<path d="M40.8596 35.1733C39.5284 37.5289 37.4265 39.9101 32.6558 40.1861C28.6749 39.8074 26.4711 38.1964 24.5094 35.154C24.7705 33.6521 26.7578 32.3235 28.6622 31.412C28.8597 31.7972 29.0698 32.1566 29.2864 32.4839C30.2354 33.8639 31.401 34.5956 32.6558 34.5956C33.8787 34.5956 35.0316 33.8575 35.987 32.4583C36.1972 32.1502 36.401 31.81 36.5857 31.4441C38.5666 32.2336 40.5475 33.4403 40.8596 35.1733Z" fill="white"/>
<path d="M37.2481 28.1579C36.9934 29.1977 36.6112 30.2953 36.108 31.2516C35.2736 32.8498 34.1017 34.0757 32.6558 34.0757C31.1399 34.0757 29.9488 32.837 29.1208 31.1938C28.6495 30.2567 28.2928 29.1913 28.0635 28.1579C27.3692 25.0449 29.2991 22.3492 32.6558 22.2401H32.8214C35.9042 22.2401 38.0188 24.9679 37.2481 28.1579Z" fill="white"/>
<path d="M57.4773 22.7214C56.1461 22.7214 54.9041 23.0745 53.8277 23.697L48.2353 13.9281C50.5347 12.6765 52.0952 10.2246 52.0952 7.40693V7.40051C52.0888 3.31836 48.8022 0 44.7386 0C40.6813 0 37.3883 3.31836 37.3883 7.40693C37.3883 7.91399 37.4392 8.4018 37.5348 8.88318H27.6176C27.3883 5 24.1909 1.92555 20.2801 1.92555C16.2228 1.92555 12.9298 5.2439 12.9298 9.33248C12.9298 11.9191 14.2419 14.1913 16.2356 15.5199L11.4076 23.9474C10.242 23.1772 8.85344 22.7214 7.35027 22.7214C3.29297 22.7214 0 26.0398 0 30.1284C0 34.2234 3.29297 37.5353 7.35027 37.5353C8.55408 37.5353 9.6942 37.2465 10.6942 36.7266L16.0254 46.0334C14.2929 47.3877 13.1846 49.5058 13.1846 51.887C13.1846 55.982 16.4776 59.294 20.5349 59.294C24.21 59.294 27.2546 56.5789 27.8024 53.0359H37.401C37.6303 56.9191 40.8278 59.9936 44.7386 59.9936C48.8022 59.9936 52.0888 56.6752 52.0888 52.5866C52.0888 50.1155 50.885 47.9268 49.0379 46.5789L54.5665 36.932C55.4582 37.3171 56.4391 37.5353 57.4773 37.5353C61.541 37.5353 64.8276 34.2169 64.8276 30.1284C64.834 26.0398 61.541 22.7214 57.4773 22.7214ZM54.2799 26.2837C54.3882 25.9371 54.5538 25.6162 54.764 25.3338C55.3372 24.57 56.2671 24.0757 57.4518 24.0372H57.5665C59.7384 24.0372 61.2289 25.9564 60.6811 28.2028C60.5028 28.9345 60.2353 29.7047 59.8786 30.3787C59.2926 31.5019 58.4646 32.3684 57.4518 32.3684C57.3627 32.3684 57.2799 32.362 57.1907 32.3492C56.8913 32.3107 56.6047 32.1951 56.3436 32.0282C55.7894 31.6688 55.3245 31.0591 54.9614 30.3402C54.6302 29.6791 54.3818 28.9345 54.2162 28.2028C54.0697 27.516 54.0952 26.8614 54.2799 26.2837ZM53.0824 24.1913C51.2863 25.5392 50.127 27.6958 50.127 30.1284C50.127 30.2696 50.1334 30.4108 50.1398 30.5456C50.1398 30.5456 50.1334 30.5456 50.127 30.5456L43.1717 30.5777C43.1589 30.5777 43.1462 30.5777 43.1398 30.5777C43.0379 27.2465 41.4074 24.3068 38.9297 22.4454C38.936 22.439 38.9424 22.4326 38.9424 22.4198L43.4392 14.8203C43.4583 14.7882 43.471 14.7497 43.4838 14.7112C43.8914 14.7818 44.3118 14.8203 44.7449 14.8203C45.694 14.8203 46.5984 14.6406 47.4264 14.3132L53.0824 24.1913ZM42.3118 30.8986C42.3118 36.2516 38.0061 40.5905 32.694 40.5905C27.382 40.5905 23.0763 36.2516 23.0763 30.8986C23.0763 28.3312 24.089 25.8665 25.8915 24.0436C27.6941 22.2208 30.1399 21.2003 32.694 21.2067C38.0061 21.2067 42.3118 25.5456 42.3118 30.8986ZM44.7131 1.31579H44.8277C46.9997 1.31579 48.4901 3.23492 47.9424 5.48139C47.764 6.21309 47.4965 6.98331 47.1398 7.65725C46.7385 8.42105 46.2354 9.0629 45.6303 9.39666C45.3436 9.55712 45.0379 9.64698 44.7067 9.64698C44.0889 9.64698 43.5475 9.35173 43.0889 8.88318C42.7577 8.543 42.4647 8.10655 42.2226 7.61874C41.8914 6.96406 41.643 6.21309 41.4774 5.48139C40.9934 3.29268 42.3564 1.39281 44.7131 1.31579ZM39.2354 9.78177C39.4329 9.46727 39.7258 9.1656 40.0762 8.88318C40.5666 8.48524 41.1717 8.13222 41.7704 7.83697C41.9615 8.21566 42.1781 8.56868 42.4201 8.88318C42.7067 9.24904 43.0379 9.56354 43.401 9.78177C43.7959 10.0257 44.2354 10.1605 44.7194 10.1605C44.8277 10.1605 44.9296 10.154 45.0315 10.1412C45.3373 10.1027 45.6239 10 45.8914 9.84596C46.5984 9.44801 47.178 8.7163 47.6239 7.84981C48.9678 8.40822 50.2735 9.24262 50.4901 10.4172C49.9041 11.4442 49.1143 12.484 47.7959 13.1643C47.5411 13.2991 47.2672 13.4146 46.9678 13.5173C46.3245 13.742 45.5857 13.8896 44.7131 13.9409C41.9105 13.6778 40.3564 12.5417 38.9806 10.3979C39.0188 10.1926 39.108 9.98074 39.2354 9.78177ZM27.6176 9.78177H37.7704C38.5475 12.0988 40.4265 13.9024 42.7831 14.5507L38.3437 22.0411C36.7131 20.982 34.7768 20.3659 32.694 20.3659C30.7514 20.3659 28.9297 20.8986 27.3692 21.8357L24.1718 15.6418C24.1718 15.6354 24.1654 15.629 24.1654 15.629C26.1272 14.3967 27.4775 12.2529 27.6176 9.78177ZM20.2546 3.24133H20.3693C22.5412 3.24133 24.0317 5.16046 23.4839 7.40693C23.3629 7.89474 23.2037 8.4018 23.0062 8.88318C22.9425 9.03723 22.8788 9.18485 22.8088 9.33248C22.7705 9.41592 22.726 9.50578 22.6814 9.5828C22.0954 10.706 21.2674 11.5725 20.2546 11.5725C19.8725 11.5725 19.5158 11.457 19.191 11.258C19.0636 11.181 18.9425 11.0911 18.8279 10.9884C18.4139 10.629 18.0572 10.122 17.7642 9.54429C17.433 8.8896 17.1846 8.13864 17.019 7.40693C16.5349 5.21823 17.898 3.31836 20.2546 3.24133ZM14.5222 12.3299C14.7005 11.3094 16.0126 10.3979 17.3056 9.76252C17.6432 10.4365 18.0636 11.027 18.5668 11.4442C18.6814 11.5404 18.8088 11.6303 18.9298 11.7073C19.3247 11.9512 19.7642 12.086 20.2483 12.086C21.5094 12.086 22.4839 11.0847 23.1591 9.77535C24.503 10.3338 25.8087 11.1682 26.0253 12.3427C25.0826 13.9987 23.6049 15.6739 20.2483 15.8729C18.9617 15.751 17.9362 15.4429 17.0763 14.9422C16.9489 14.8652 16.8215 14.7882 16.7005 14.7048C15.8661 14.1271 15.1782 13.344 14.5222 12.3299ZM17.0063 15.9692C17.9935 16.4634 19.1018 16.7394 20.2801 16.7394C21.4521 16.7394 22.5667 16.4634 23.5476 15.9692L26.7578 22.1823C26.7642 22.1951 26.7705 22.2015 26.7769 22.2144C24.1209 24.0565 22.3502 27.0988 22.2483 30.5712L14.6814 30.6354C14.6942 30.4685 14.7005 30.2952 14.7005 30.1284V30.122C14.7005 27.8691 13.7005 25.8472 12.1209 24.4865L17.0063 15.9692ZM7.32479 24.0372H7.43944C8.7579 24.0372 9.82796 24.7433 10.3375 25.8087C10.5159 26.181 10.6305 26.5982 10.6623 27.0475C10.6878 27.4198 10.656 27.8049 10.5541 28.2028C10.3757 28.9345 10.1082 29.7047 9.75153 30.3787C9.49038 30.8793 9.17828 31.335 8.8216 31.6752C8.5923 31.8999 8.35026 32.0732 8.08912 32.1951C7.84708 32.3042 7.59231 32.3684 7.31842 32.3684C6.24837 32.3684 5.41398 31.4955 4.83436 30.3402C4.50315 29.6791 4.25475 28.9345 4.08914 28.2028C3.60507 26.0141 4.96812 24.1142 7.32479 24.0372ZM10.2547 35.9628C9.47764 36.3415 8.52223 36.5982 7.32479 36.6688C4.52226 36.4056 2.9745 35.2696 1.59235 33.1258C1.77069 32.1053 3.08278 31.1938 4.37577 30.5584C5.03818 31.8742 6.01907 32.8819 7.32479 32.8819C7.69422 32.8819 8.03179 32.7985 8.35026 32.6444C8.61141 32.516 8.85981 32.3492 9.08911 32.1374C9.53497 31.733 9.91713 31.181 10.2356 30.5712C11.5795 31.1297 12.8916 31.9641 13.1018 33.1386C12.6177 33.9923 11.9872 34.8588 11.0254 35.5135C10.7897 35.6804 10.535 35.828 10.2547 35.9628ZM11.4649 36.2773C13.1018 35.1605 14.2738 33.3954 14.605 31.3479L22.2546 31.2837C22.3884 34.9807 24.4075 38.1836 27.3692 39.9615C27.3629 39.9679 27.3565 39.9743 27.3565 39.9807L23.5795 44.9807C23.5476 45.0257 23.5221 45.0706 23.5158 45.122C22.6049 44.7112 21.5986 44.4865 20.5413 44.4865C19.1655 44.4865 17.8725 44.8716 16.7706 45.5327L11.4649 36.2773ZM22.9489 52.1438C22.7705 52.4711 22.5795 52.7728 22.3693 53.0424C21.8597 53.697 21.2355 54.1271 20.5094 54.1271C19.4394 54.1271 18.605 53.2542 18.0254 52.1053C17.6941 51.4506 17.4394 50.6996 17.2801 49.9679C17.1464 49.3582 17.1528 48.7677 17.2865 48.2349C17.3757 47.8691 17.5285 47.5289 17.7324 47.2208C18.2929 46.3864 19.261 45.8408 20.5094 45.8023H20.6304C22.8024 45.8023 24.2865 47.7214 23.7451 49.9679C23.5667 50.6996 23.2992 51.4698 22.9489 52.1438ZM20.5158 58.4275C17.7133 58.1643 16.1655 57.0282 14.7833 54.8845C14.9617 53.8639 16.2738 52.9525 17.5668 52.3171C18.2292 53.6329 19.2101 54.6406 20.5158 54.6406C21.5349 54.6406 22.3693 53.9859 23.0062 53.0424H24.8088C25.5667 53.5302 26.1527 54.1463 26.2864 54.8973C25.3501 56.5533 23.8724 58.2285 20.5158 58.4275ZM27.8852 52.1438C27.8852 52.0603 27.8915 51.9769 27.8915 51.8935C27.8915 49.1143 26.3692 46.6881 24.1209 45.4236C24.1272 45.4172 24.1336 45.4108 24.14 45.4044L27.917 40.4044C27.9425 40.3723 27.9616 40.3338 27.9743 40.2888C29.3947 41.0141 30.9934 41.4249 32.694 41.4249C34.5921 41.4249 36.3755 40.9114 37.9042 40.0257L41.4902 45.9499C39.1844 47.0988 37.5666 49.4223 37.401 52.1502H27.8852V52.1438ZM44.7131 46.5019H44.8277C45.8914 46.5019 46.7895 46.9641 47.3691 47.6958C47.5857 47.9653 47.7513 48.2798 47.8723 48.62C48.0825 49.2298 48.1207 49.9294 47.9424 50.6675C47.764 51.3992 47.4965 52.1694 47.1398 52.8434C46.5538 53.9666 45.7258 54.8331 44.7131 54.8331C43.7194 54.8331 42.9233 54.0757 42.35 53.0424C42.3054 52.9653 42.2672 52.8883 42.2226 52.8049C42.1144 52.5931 42.0188 52.3684 41.9233 52.1438C41.7322 51.6688 41.5857 51.1617 41.4774 50.6675C40.9934 48.4788 42.3564 46.5789 44.7131 46.5019ZM50.4901 55.6033C49.5474 57.2593 48.0697 58.9345 44.7131 59.1335C41.9105 58.8703 40.3564 57.7343 38.9806 55.5905C39.159 54.5828 40.4456 53.6778 41.7322 53.0424C41.7449 53.0359 41.7577 53.0295 41.764 53.0231C41.764 53.0295 41.7704 53.0359 41.7704 53.0424C42.4328 54.3453 43.4073 55.3466 44.7131 55.3466C45.9742 55.3466 46.9487 54.3453 47.6239 53.0359C48.9742 53.5943 50.2799 54.4288 50.4901 55.6033ZM48.2863 46.104C47.2353 45.5199 46.0252 45.1861 44.7386 45.1861C43.8214 45.1861 42.9424 45.353 42.1335 45.6675C42.1271 45.6483 42.1207 45.6354 42.108 45.6162L38.5029 39.6598L38.4966 39.6534C41.1972 37.8306 43.0061 34.7754 43.1271 31.2837C43.1398 31.2837 43.1526 31.2837 43.1653 31.2837L50.1207 31.2516C50.1462 31.2516 50.1716 31.2452 50.1971 31.2388C50.5347 33.4981 51.885 35.4172 53.764 36.5276L48.2863 46.104ZM57.4518 36.6688C56.5219 36.5789 55.7321 36.3992 55.0378 36.1104C54.7576 35.9949 54.4901 35.8601 54.2353 35.7125C53.2353 35.122 52.4519 34.2683 51.7194 33.1258C51.8977 32.1053 53.2098 31.1938 54.5028 30.5584C54.9105 31.3671 55.4391 32.0603 56.0888 32.4711C56.3436 32.6316 56.6238 32.7535 56.9168 32.8177C57.0888 32.8562 57.2671 32.8755 57.4455 32.8755C58.7066 32.8755 59.6811 31.8742 60.3563 30.5648C61.7002 31.1232 63.0059 31.9576 63.2225 33.1322C62.2926 34.7946 60.8085 36.4698 57.4518 36.6688Z" fill="white"/>
</g>
<defs>
<clipPath id="clip0_9_297">
<rect width="64.8276" height="60" fill="white"/>
</clipPath>
</defs>
</svg>
