<svg width="20" height="22" viewBox="0 0 20 22" fill="none" xmlns="http://www.w3.org/2000/svg">
<path d="M18 6.40015V16.9001C18 18.6001 16.7 19.9001 15 19.9001H3.9C3.9 21.0001 4.8 21.9001 5.9 21.9001H16C18.2 21.9001 20 20.1001 20 17.9001V8.40015C20 7.30015 19.1 6.40015 18 6.40015Z" fill="#FFFEFE"/>
<path d="M3 0.100098V2.1001H2C0.9 2.1001 0 3.0001 0 4.1001V16.1001C0 17.2001 0.9 18.1001 2 18.1001H14.2C15.3 18.1001 16.2 17.2001 16.2 16.1001V4.1001C16.2 3.0001 15.3 2.1001 14.2 2.1001H13.2V0.100098H11.2V2.1001H5V0.100098H3ZM2 7.1001H14.2V16.1001H2V7.1001Z" fill="#FFFEFE"/>
<path d="M11.7 15.3L9.3 13.9L7 15.3L7.6 12.6L5.5 10.8L8.3 10.6L9.4 8L10.5 10.5L13.3 10.8L11.2 12.6L11.7 15.3Z" fill="#FFFEFE"/>
</svg>
