<svg width="50" height="50" viewBox="0 0 50 50" fill="none" xmlns="http://www.w3.org/2000/svg">
<path fill-rule="evenodd" clip-rule="evenodd" d="M3.66117 46.3387C7.32232 50 13.2149 50 25 50C36.785 50 42.6777 50 46.3387 46.3387C50 42.6777 50 36.785 50 25C50 13.2149 50 7.32232 46.3387 3.66117C42.6777 -2.98023e-07 36.785 0 25 0C13.2149 0 7.32232 -2.98023e-07 3.66117 3.66117C-2.98023e-07 7.32232 0 13.2149 0 25C0 36.785 -2.98023e-07 42.6777 3.66117 46.3387ZM41.875 35C41.875 36.0355 41.0355 36.875 40 36.875H10C8.96448 36.875 8.125 36.0355 8.125 35C8.125 33.9645 8.96448 33.125 10 33.125H40C41.0355 33.125 41.875 33.9645 41.875 35ZM40 26.875C41.0355 26.875 41.875 26.0355 41.875 25C41.875 23.9645 41.0355 23.125 40 23.125H10C8.96448 23.125 8.125 23.9645 8.125 25C8.125 26.0355 8.96448 26.875 10 26.875H40ZM41.875 15C41.875 16.0355 41.0355 16.875 40 16.875H10C8.96448 16.875 8.125 16.0355 8.125 15C8.125 13.9645 8.96448 13.125 10 13.125H40C41.0355 13.125 41.875 13.9645 41.875 15Z" fill="white"/>
</svg>
