<svg width="25" height="20" viewBox="0 0 25 20" fill="none" xmlns="http://www.w3.org/2000/svg">
<path d="M1.38232 4.83407L8.11458 9.43848C9.6995 10.5224 10.492 11.0644 11.3484 11.275C12.1054 11.4611 12.8945 11.4611 13.6515 11.275C14.5079 11.0644 15.3005 10.5224 16.8854 9.43848L23.6176 4.83407M5.33527 18.7742H19.6647C21.0483 18.7742 21.7402 18.7742 22.2687 18.4979C22.7335 18.255 23.1115 17.8672 23.3483 17.3903C23.6176 16.8482 23.6176 16.1383 23.6176 14.7189V5.08753C23.6176 3.66804 23.6176 2.95829 23.3483 2.41612C23.1115 1.93921 22.7335 1.55147 22.2687 1.30848C21.7402 1.03223 21.0483 1.03223 19.6647 1.03223H5.33527C3.95161 1.03223 3.25977 1.03223 2.73129 1.30848C2.26641 1.55147 1.88846 1.93921 1.65161 2.41612C1.38232 2.95829 1.38232 3.66803 1.38232 5.08753V14.7189C1.38232 16.1383 1.38232 16.8482 1.65161 17.3903C1.88846 17.8672 2.26641 18.255 2.73129 18.4979C3.25977 18.7742 3.9516 18.7742 5.33527 18.7742Z" stroke="#FFFDFD" stroke-linecap="round" stroke-linejoin="round"/>
</svg>
