<svg width="20" height="20" viewBox="0 0 20 20" fill="none" xmlns="http://www.w3.org/2000/svg">
<path d="M11.9965 11.5851C11.6419 11.9394 11.3583 12.3645 11.0746 12.8605C9.65637 11.6559 8.30902 10.3806 7.10349 8.89267C7.59989 8.68011 8.02536 8.32584 8.37993 7.97157C10.0109 6.34195 9.44363 4.21634 7.81262 2.58672C6.18162 0.957089 4.05423 0.319409 2.42323 1.94904C0.792223 3.57866 0.508571 6.62536 1.85592 8.5384C4.19605 12.1519 7.81262 15.7654 11.4292 18.1745C13.3438 19.4498 16.3931 19.2373 18.0241 17.6076C19.6551 15.978 19.0878 13.8524 17.4568 12.2228C15.8258 10.5931 13.6984 9.88462 11.9965 11.5851Z" stroke="#FFFEFE" stroke-miterlimit="10" stroke-linejoin="round"/>
</svg>
