<svg width="58" height="51" viewBox="0 0 58 51" fill="none" xmlns="http://www.w3.org/2000/svg">
<g clip-path="url(#clip0_9_286)">
<path d="M55.2953 17.669C55.2953 21.4419 53.711 25.2039 50.6199 27.88L27.0882 48.28C25.6257 49.5522 23.4986 49.5961 21.9918 48.5103C21.8145 48.3897 21.6705 48.2142 21.5708 48.0277C21.1166 47.1503 21.3825 46.4155 21.9364 45.3626C22.025 45.209 22.1358 45.0664 22.2688 44.9458C24.8059 42.7742 36.6161 32.5522 36.738 32.4426C37.1036 32.1245 37.1479 31.5651 36.8266 31.2032C36.5053 30.8413 35.9403 30.7974 35.5747 31.1155C35.4417 31.2251 23.0443 41.9626 20.9504 43.7503C20.8839 43.8051 20.8064 43.86 20.7288 43.9039C19.6541 44.4851 18.5906 44.2 18.0477 43.9697C17.8483 43.8819 17.6821 43.7613 17.5381 43.5968L17.0617 43.0484C16.9065 42.8729 16.7847 42.6535 16.7404 42.4232C16.6074 41.7651 16.8622 41.129 17.3054 40.2955C17.394 40.1419 17.5048 39.9993 17.6378 39.8787C20.1749 37.7071 31.9851 27.4851 32.1069 27.3755C32.4725 27.0574 32.5169 26.498 32.1956 26.1361C31.8743 25.7742 31.3092 25.7303 30.9436 26.0484C30.8107 26.158 18.4133 36.8955 16.3194 38.6832C16.2529 38.738 16.1753 38.7929 16.0978 38.8368C15.2669 39.2864 14.4581 39.2206 13.8709 39.0561C13.605 38.9793 13.3613 38.8368 13.1729 38.6174L12.5747 37.9484C12.5525 37.9155 12.5303 37.8935 12.4971 37.8606C11.6773 36.7748 11.9321 35.9742 12.5857 34.7458C12.6744 34.5922 12.7852 34.4497 12.9181 34.329C15.4552 32.1684 27.2876 21.9684 27.4205 21.8587C27.7861 21.5406 27.8304 20.9813 27.5092 20.6193C27.1879 20.2574 26.6228 20.2135 26.2572 20.5316C26.1243 20.6413 13.6936 31.5103 11.5775 33.0897C11.5111 33.1445 11.3449 33.1884 11.3338 33.1884C9.35067 33.4955 7.86608 33.0458 7.68882 31.269C7.55587 30.0077 8.03227 28.7026 9.06262 27.8032L18.513 19.6103L23.4321 15.3439C23.4432 15.3548 23.4542 15.3658 23.4653 15.3658L23.4986 15.3329C25.3931 16.9232 30.6113 21.3432 31.8964 22.6045C32.0183 22.7251 32.1623 22.8348 32.3174 22.9335C32.8714 23.2845 33.6026 23.4709 34.4668 23.4709C36.3059 23.4709 38.6989 22.5826 39.3637 21.1458C39.7071 20.4 39.5631 19.5993 38.9759 18.9413C38.1561 18.0419 34.6329 14.269 31.1652 10.5729C30.6113 9.99159 30.6667 9.0703 31.276 8.54385L32.6055 7.39224C38.3001 2.45675 46.9528 3.01611 51.9384 8.65353C54.1763 11.3187 55.2953 14.4993 55.2953 17.669Z" fill="white"/>
<path d="M37.8459 20.9374C37.8237 20.9813 37.8016 21.0252 37.7794 21.0691C37.6797 21.2445 37.5357 21.3761 37.3695 21.4749C36.5607 21.9355 35.4417 22.2316 34.4557 22.2316C33.7023 22.2316 33.0376 22.0561 32.6166 21.6613C31.3093 20.389 26.1908 16.0568 24.2409 14.4116L24.2298 14.4007C23.7977 14.0387 23.1662 14.0387 22.7341 14.4116L8.10984 26.9258C7.64452 27.3207 6.95762 27.2878 6.53662 26.8491L6.09346 26.3884C6.06022 26.3555 6.02698 26.3226 6.00483 26.2897C1.62862 20.5865 2.26012 12.4155 7.67775 7.45808C13.3391 2.27034 22.158 2.5226 27.5202 8.00647C27.5646 8.05034 28.2736 8.85099 29.304 10.0136C31.8743 12.9091 36.4167 18.042 37.5578 19.3252C37.9899 19.8187 38.1007 20.389 37.8459 20.9374Z" fill="white"/>
</g>
<defs>
<clipPath id="clip0_9_286">
<rect width="57.4557" height="51" fill="white"/>
</clipPath>
</defs>
</svg>
